<svg width="241" height="241" viewBox="0 0 241 241" fill="white" xmlns="http://www.w3.org/2000/svg">
<g clip-path="url(#clip0_409_79)">
<path d="M196.665 120.5C196.665 78.4387 162.561 44.335 120.5 44.335C78.4387 44.335 44.3349 78.4387 44.3349 120.5C44.3349 162.561 78.4387 196.665 120.5 196.665C162.561 196.665 196.665 162.561 196.665 120.5Z" fill="white"/>
<path d="M209.549 150.814C212.201 148.92 214.096 147.404 216.369 147.025C214.854 145.509 214.096 142.857 212.959 140.204C211.822 137.173 210.307 133.762 208.412 130.731C207.275 139.825 205.002 148.541 201.591 156.498C204.244 154.225 206.896 152.33 209.549 150.814Z" fill="#FFC549"/>
<path d="M223.948 125.805C219.401 120.879 213.338 120.5 208.412 120.5C208.412 122.774 208.412 125.047 208.033 126.942C211.064 131.11 212.58 135.278 214.096 138.689C215.612 142.478 216.748 145.131 218.643 146.267C219.022 146.646 219.401 147.025 219.022 147.404C219.022 147.783 218.643 148.162 217.885 148.162C215.991 147.783 213.338 149.678 209.928 151.951C206.896 153.846 203.486 156.498 199.318 158.393C198.181 160.288 197.423 162.561 196.286 164.456C200.075 167.109 205.002 169.382 211.064 167.866C225.464 164.456 233.421 152.709 239.863 153.467C234.558 150.436 234.558 136.415 223.948 125.805Z" fill="#1EC797"/>
<path d="M208.791 109.51C209.928 107.616 211.443 104.963 212.201 103.069C213.717 99.6582 214.854 97.0056 216.369 95.4899C214.475 94.7321 212.201 92.8374 209.549 90.9427C207.275 89.0481 204.244 86.7745 200.833 85.2588C204.244 93.2163 206.517 101.932 207.654 110.647C208.412 110.268 208.412 109.889 208.791 109.51Z" fill="#FFC549"/>
<path d="M211.065 89.4276C214.096 91.7012 216.748 93.5959 218.643 93.5959C218.643 93.5959 218.643 93.5959 219.022 93.5959C219.401 93.5959 219.78 93.9748 220.159 94.3537C220.159 94.7327 220.159 95.1116 219.78 95.4905C217.506 96.2484 216.37 99.6588 214.475 103.448C213.717 105.722 212.201 107.995 211.065 110.269C210.307 111.406 209.549 112.542 208.791 113.3C208.791 115.574 209.17 117.847 209.17 120.121C213.717 120.5 219.022 119.742 223.948 115.574C226.601 112.921 228.495 110.269 230.39 107.616C231.906 104.964 233.8 101.932 234.558 99.6588C236.832 94.7327 238.726 90.5644 241.758 89.0487C235.316 89.4276 227.737 77.3018 213.338 73.1336C206.517 71.2389 201.212 73.8915 197.423 76.544C198.56 78.4386 199.697 80.3333 200.454 82.6069C204.244 84.5015 208.033 87.154 211.065 89.4276Z" fill="#1EC797"/>
<path d="M181.508 48.1246L183.781 48.5036C187.571 48.8825 190.602 49.6404 192.118 48.5036C192.497 48.1246 192.876 48.1246 193.255 48.5036C193.634 48.8825 193.634 49.2614 193.255 49.6404C192.118 51.1561 192.118 54.5664 192.876 58.3558C193.255 61.7661 193.634 66.3133 192.876 70.8605C194.013 72.7551 195.149 74.6498 196.286 76.5444C200.454 74.6498 205.002 71.2394 206.896 65.1765C211.064 51.1561 205.002 38.2724 208.791 33.3463C206.138 35.241 201.591 34.4831 195.907 33.3463C190.223 32.5885 183.403 31.8306 176.203 33.7253C169.382 35.241 165.972 40.1671 164.077 44.3353C165.972 45.4721 167.866 46.6089 169.761 47.7457C174.308 47.3668 178.097 47.7457 181.508 48.1246Z" fill="#1EC797"/>
<path d="M191.36 68.5869C191.739 65.1765 191.36 61.7661 190.981 58.7347C190.602 55.7032 190.602 53.0507 190.981 50.7771C189.086 51.1561 186.434 50.7771 183.403 50.3982L181.129 50.0193C178.476 49.6404 175.445 49.2614 172.414 49.6404C179.992 54.9454 186.055 61.3872 191.36 68.5869Z" fill="#FFC549"/>
<path d="M139.068 26.5256C142.857 25.0099 145.509 23.8731 146.646 21.9784C147.025 21.5995 147.404 21.2206 147.783 21.5995C148.162 21.5995 148.541 21.9784 148.541 22.7363C148.162 25.0099 150.057 27.2835 152.33 30.6938C154.225 33.7253 156.877 37.1357 158.772 41.3039C160.667 42.4407 162.94 43.1986 164.835 44.3354C167.487 40.546 169.761 35.6199 168.245 29.557C164.835 15.1577 153.088 7.20013 153.846 0.758301C150.814 6.82119 136.794 6.8212 126.184 17.4313C121.258 21.9784 120.879 28.0413 120.879 32.9674C123.153 32.9674 125.426 32.9674 127.321 33.3464C131.11 29.557 135.657 28.0413 139.068 26.5256Z" fill="#1EC797"/>
<path d="M150.814 31.4511C148.92 28.7986 147.404 26.904 147.025 24.6304C145.509 26.1461 142.857 26.904 140.204 28.0407C137.173 29.1775 133.763 30.6933 130.731 32.5879C139.825 33.7247 148.541 35.9983 156.498 39.4087C154.225 36.7562 152.33 33.7247 150.814 31.4511Z" fill="#FFC549"/>
<path d="M109.511 32.209C107.616 31.0722 104.964 29.5565 103.069 28.7986C99.6588 27.2829 97.0063 26.1461 95.4906 24.6304C94.7327 26.525 92.838 28.7986 90.9434 31.0722C89.0487 33.3458 86.7752 36.3772 85.2594 39.7876C93.217 36.3772 101.932 34.1036 110.648 32.9669C110.269 32.5879 109.89 32.5879 109.511 32.209Z" fill="#FFC549"/>
<path d="M89.4277 29.9355C92.0802 26.9041 93.9749 24.2516 93.5959 21.978C93.5959 21.5991 93.9749 21.2201 94.3538 20.8412C94.7327 20.8412 95.1117 20.8412 95.4906 21.2201C96.2484 23.4937 99.6588 25.0094 103.448 26.5252C105.722 27.283 107.995 28.7987 110.269 29.9355C111.406 30.6934 112.542 31.4513 113.3 32.2091C115.574 32.2091 117.848 31.8302 120.121 31.8302C120.5 27.283 119.742 21.978 115.574 17.0519C113.3 15.1572 110.648 13.2626 107.616 11.3679C104.964 9.8522 101.932 7.95755 99.6588 7.19969C94.7327 4.9261 90.5645 3.03145 89.0488 0C89.4277 6.44182 77.3019 14.0204 73.1337 28.4198C71.239 35.2406 73.8915 40.5456 76.544 44.3349C78.4387 43.1981 80.3333 42.0613 82.6069 41.3035C84.5016 36.7563 87.1541 32.967 89.4277 29.9355Z" fill="#1EC797"/>
<path d="M48.1242 59.492L48.5031 57.2184C48.8821 53.4291 49.6399 50.7766 48.5031 48.8819C48.1242 48.503 48.1242 48.1241 48.5031 47.7452C48.8821 47.3662 49.261 47.3662 49.6399 47.7452C51.1557 48.8819 54.566 48.8819 58.3553 48.1241C61.7657 47.7451 66.3129 47.3662 70.8601 48.1241C72.7547 46.9873 74.6494 45.8505 76.544 44.7137C74.6494 40.5455 71.239 35.9983 65.1761 34.1036C51.1557 29.9354 38.272 35.9983 33.3459 32.209C35.2406 34.8615 34.4827 39.4087 33.3459 45.0926C32.5881 50.3977 31.4513 56.8395 33.7248 64.4181C35.2406 71.2389 40.1667 74.6492 44.3349 76.5439C45.4717 74.6492 46.6085 72.7546 47.7453 70.8599C47.3664 66.6917 47.7453 62.9024 48.1242 59.492Z" fill="#1EC797"/>
<path d="M68.5865 49.6404C65.1761 49.2614 61.7657 49.6404 58.7343 50.0193C55.7028 50.3982 53.0503 50.3982 50.7767 50.0193C51.1557 51.9139 50.7767 54.5665 50.3978 57.5979L50.0189 59.8715C49.6399 62.524 49.261 65.5554 49.6399 68.5869C54.945 61.0083 61.3868 54.9454 68.5865 49.6404Z" fill="#FFC549"/>
<path d="M26.5252 101.932C25.0094 98.1425 23.8727 95.49 21.978 94.3532C21.5991 93.9742 21.2201 93.5953 21.5991 93.2164C21.5991 92.8374 21.978 92.4585 22.7359 92.4585C25.0094 92.8374 27.283 90.9428 30.6934 88.6692C33.7249 86.7745 37.1352 84.122 41.3035 82.2274C42.4403 80.3327 43.1981 78.0591 44.3349 76.1645C40.5456 73.512 35.6195 71.2384 29.5566 72.7541C15.1572 76.1645 7.1997 87.9113 0.757874 87.1535C6.82077 90.1849 6.82077 104.205 17.4308 114.815C21.978 119.742 28.0409 120.12 32.967 120.12C32.967 117.847 32.967 115.573 33.3459 113.679C29.5566 109.889 28.0409 105.342 26.5252 101.932Z" fill="#1EC797"/>
<path d="M31.4512 90.1859C28.7987 92.0806 26.9041 93.5963 24.6305 93.9752C26.1462 95.4909 26.9041 98.1435 28.0409 100.796C29.1777 103.827 30.6934 107.238 32.588 110.269C33.7248 101.175 35.9984 92.4595 39.4088 84.502C36.7563 86.7755 33.7248 88.6702 31.4512 90.1859Z" fill="#FFC549"/>
<path d="M29.9355 151.573C26.9041 148.92 24.2516 147.025 21.978 147.404C21.5991 147.404 21.2201 147.025 20.8412 146.646C20.8412 146.268 20.8412 145.889 21.2201 145.51C23.4937 144.752 24.6305 141.341 26.5252 137.552C27.283 135.279 28.7987 133.005 29.9355 130.731C30.6934 129.595 31.4513 128.458 32.2091 127.7C32.2091 125.426 31.8302 123.153 31.8302 120.879C27.283 120.5 21.978 121.258 17.0519 125.426C15.1572 127.7 13.2626 130.352 11.3679 133.384C9.8522 136.036 7.95755 139.068 7.19969 141.341C4.9261 146.268 3.03145 150.436 0 151.951C6.44182 151.573 14.0204 163.698 28.4198 167.867C35.2406 169.761 40.5456 167.109 44.3349 164.456C43.1981 162.562 42.0613 160.667 41.3035 158.393C36.7563 156.499 32.967 153.846 29.9355 151.573Z" fill="#1EC797"/>
<path d="M32.2091 131.489C31.0723 133.383 29.5566 136.036 28.7987 137.931C27.283 141.341 26.1462 143.994 24.6305 145.509C26.5251 146.267 28.7987 147.783 31.4512 150.056C33.7248 151.951 36.7563 154.225 40.1667 155.74C36.3773 147.783 34.1038 139.067 32.967 130.352C32.588 130.731 32.588 131.11 32.2091 131.489Z" fill="#FFC549"/>
<path d="M67.0707 193.255C64.4182 193.255 61.7657 192.876 59.4921 192.876L57.2185 192.497C53.4292 192.119 50.7767 191.361 48.8821 192.497C48.5031 192.876 48.1242 192.876 47.7453 192.497C47.3663 192.119 47.3663 191.74 47.7453 191.361C48.8821 189.845 48.8821 186.435 48.1242 182.645C47.7453 179.235 47.3663 174.688 48.1242 170.141C46.9874 168.246 45.8506 166.351 44.7138 164.457C40.5456 166.351 35.9984 169.762 34.1038 175.824C29.9355 189.845 35.9984 202.729 32.2091 207.655C34.8616 205.76 39.4088 206.518 45.0928 207.655C50.7767 208.413 57.5975 209.17 64.7972 207.276C71.6179 205.76 75.0283 200.834 76.9229 196.666C75.0283 195.529 73.1336 194.392 71.239 193.255C69.3443 193.255 68.2075 193.255 67.0707 193.255Z" fill="#1EC797"/>
<path d="M49.6399 172.413C49.261 175.823 49.6399 179.234 50.0189 182.265C50.3978 185.297 50.3978 187.949 50.0189 190.223C50.7767 190.223 51.1557 190.223 51.9135 190.223C53.4292 190.223 55.3239 190.602 57.5975 190.981L59.8711 191.36C62.5236 191.739 65.555 192.117 68.5865 191.739C61.0079 186.055 54.945 179.613 49.6399 172.413Z" fill="#FFC549"/>
<path d="M90.1856 209.549C92.0802 212.201 93.5959 214.096 93.9749 216.37C95.4906 214.854 98.1431 214.096 100.796 212.959C103.827 211.822 107.237 210.307 110.269 208.412C101.175 207.275 92.4591 205.002 84.5016 201.591C86.7752 204.244 88.6698 206.896 90.1856 209.549Z" fill="#FFC549"/>
<path d="M101.932 214.475C98.1431 215.99 95.4906 217.127 94.3538 219.022C94.3538 219.401 93.9748 219.401 93.5959 219.401C93.5959 219.401 93.5959 219.401 93.217 219.401C92.8381 219.401 92.4591 219.022 92.4591 218.264C92.8381 215.99 90.9434 213.717 88.6698 210.307C86.7752 207.275 84.1226 203.865 82.228 199.696C80.3333 198.56 78.0597 197.802 76.1651 196.665C73.5126 200.454 71.239 205.38 72.7547 211.443C76.1651 225.843 87.912 233.8 87.1541 240.242C90.1855 234.179 104.206 234.179 114.816 223.569C119.742 219.022 120.121 212.959 120.121 208.033C117.847 208.033 115.574 208.033 113.679 207.654C109.89 211.443 105.343 212.959 101.932 214.475Z" fill="#1EC797"/>
<path d="M131.489 208.791C133.384 209.927 136.036 211.443 137.931 212.201C141.341 213.717 143.994 214.853 145.509 216.369C146.267 214.474 147.783 212.201 150.057 209.548C151.951 207.275 154.225 204.243 155.741 200.833C147.783 204.243 139.068 206.517 130.352 207.654C130.731 208.412 131.11 208.412 131.489 208.791Z" fill="#FFC549"/>
<path d="M151.572 211.064C148.92 214.096 147.025 216.748 147.404 219.022C147.404 219.401 147.025 219.78 146.646 220.159C146.646 220.159 146.646 220.159 146.267 220.159C145.888 220.159 145.509 219.78 145.509 219.401C144.752 217.127 141.341 215.991 137.552 214.096C135.278 213.338 133.005 211.822 130.731 210.685C129.594 209.928 128.458 209.17 127.7 208.412C125.047 208.412 122.774 208.412 120.5 208.412C120.121 212.959 120.879 218.264 125.047 223.19C127.7 225.843 130.352 227.737 133.005 229.632C135.657 231.148 138.689 233.042 140.962 233.8C145.888 236.074 150.057 237.968 151.572 241C151.193 234.558 163.319 226.979 167.487 212.58C169.382 205.759 166.73 200.454 164.077 196.665C162.182 197.802 160.288 198.939 158.014 199.696C156.498 204.244 153.846 208.033 151.572 211.064Z" fill="#1EC797"/>
<path d="M192.876 181.508L192.497 183.782C192.118 187.571 191.36 190.603 192.497 192.118C192.876 192.497 192.876 192.876 192.497 193.255C192.497 193.255 192.118 193.634 191.739 193.634C191.36 193.634 191.36 193.634 191.36 193.634C189.844 192.497 186.434 192.497 182.645 193.255C179.234 193.634 174.687 194.013 170.14 193.255C168.245 194.392 166.351 195.529 164.456 196.666C166.351 200.834 169.761 205.381 175.824 207.276C189.844 211.444 202.728 205.381 207.654 209.17C205.759 206.518 206.517 201.971 207.654 196.287C208.412 190.603 209.17 183.782 207.275 176.582C205.759 169.762 200.833 166.351 196.665 164.457C195.528 166.351 194.391 168.246 193.255 170.141C193.634 174.309 193.255 178.098 192.876 181.508Z" fill="#1EC797"/>
<path d="M172.414 191.36C175.824 191.739 179.234 191.36 182.266 190.981C185.297 190.602 187.95 190.602 190.223 190.981C189.844 189.086 190.223 186.434 190.602 183.402L190.981 181.128C191.36 178.476 191.739 175.445 191.36 172.413C186.055 179.992 179.613 186.055 172.414 191.36Z" fill="#FFC549"/>
<path d="M204.244 120.5C204.244 74.2705 166.73 36.7563 120.5 36.7563C74.2704 36.7563 36.7563 74.2705 36.7563 120.5C36.7563 166.73 74.2704 204.244 120.5 204.244C166.73 204.244 204.244 166.73 204.244 120.5Z" stroke="#FFC549" stroke-width="2" stroke-miterlimit="10"/>
<path d="M200.454 120.5C200.454 76.1649 164.456 40.5454 120.5 40.5454C76.1651 40.5454 40.5456 76.5438 40.5456 120.5C40.5456 164.835 76.544 200.454 120.5 200.454C164.835 200.454 200.454 164.835 200.454 120.5Z" stroke="#1EC797" stroke-width="2" stroke-miterlimit="10"/>
<path d="M135.657 128.837V111.785C141.72 110.648 151.572 107.996 159.53 100.796C171.277 89.4284 169.003 71.9976 169.003 71.9976H165.593C165.593 71.9976 165.593 71.9976 164.835 71.9976C164.077 71.9976 150.814 72.3765 140.204 81.4708C130.352 90.1862 129.215 103.449 129.215 105.343H111.785C111.785 103.449 110.648 90.1862 100.796 81.4708C90.1855 72.3765 77.3019 71.9976 76.1651 71.9976C75.0283 71.9976 75.4072 71.9976 75.4072 71.9976H71.9969C71.9969 71.9976 69.7233 89.4284 81.4701 100.796C89.4277 108.375 99.2799 111.027 105.343 112.164V128.837C99.2799 129.595 89.4277 132.248 81.4701 140.205C69.7233 151.573 71.9969 169.004 71.9969 169.004H75.4072C75.4072 169.004 75.4072 169.004 76.1651 169.004C76.923 169.004 90.1855 168.625 100.796 159.531C110.648 150.815 111.785 137.174 111.785 135.658H129.215C129.215 137.174 130.352 150.815 140.204 159.531C150.814 168.625 163.698 169.004 164.835 169.004C165.593 169.004 165.593 169.004 165.593 169.004H169.003C169.003 169.004 171.277 151.573 159.53 140.205C151.951 132.626 141.72 129.974 135.657 128.837ZM144.373 87.1548C151.951 79.5762 161.425 79.1972 161.425 79.1972C161.425 79.1972 161.425 89.8073 153.088 97.007C144.752 104.207 136.415 104.586 136.415 104.586C136.415 104.586 137.173 94.7334 144.373 87.1548ZM87.533 97.007C79.1965 89.8073 79.1965 79.1972 79.1965 79.1972C79.1965 79.1972 89.0487 79.5762 96.2484 87.1548C103.827 94.7334 104.206 104.586 104.206 104.586C104.206 104.586 95.8695 104.207 87.533 97.007ZM96.2484 153.847C88.6698 161.425 79.1965 161.804 79.1965 161.804C79.1965 161.804 79.1965 151.194 87.533 143.994C95.8695 136.795 104.206 136.416 104.206 136.416C104.206 136.416 103.448 145.889 96.2484 153.847ZM128.458 128.458H112.542V112.543H128.458V128.458ZM144.373 153.847C136.794 146.268 136.415 136.416 136.415 136.416C136.415 136.416 144.752 136.795 153.088 143.994C161.425 151.194 161.425 161.804 161.425 161.804C161.425 161.804 151.951 161.425 144.373 153.847Z" fill="#FFC549"/>
</g>
<defs>
<clipPath id="clip0_409_79">
<rect width="241" height="241" fill="white"/>
</clipPath>
</defs>
</svg>
