<?xml version="1.0" encoding="UTF-8" standalone="no"?>
<!-- Created with Inkscape (http://www.inkscape.org/) -->

<svg
   xmlns:dc="http://purl.org/dc/elements/1.1/"
   xmlns:cc="http://creativecommons.org/ns#"
   xmlns:rdf="http://www.w3.org/1999/02/22-rdf-syntax-ns#"
   xmlns:svg="http://www.w3.org/2000/svg"
   xmlns="http://www.w3.org/2000/svg"
   xmlns:xlink="http://www.w3.org/1999/xlink"
   xmlns:sodipodi="http://sodipodi.sourceforge.net/DTD/sodipodi-0.dtd"
   xmlns:inkscape="http://www.inkscape.org/namespaces/inkscape"
   width="846.66663mm"
   height="846.66663mm"
   viewBox="0 0 846.66663 846.66663"
   version="1.1"
   id="svg5231"
   inkscape:version="0.92.0 r15299"
   sodipodi:docname="Rainbow-squares.svg">
  <defs
     id="defs5225">
    <linearGradient
       inkscape:collect="always"
       id="linearGradient5661">
      <stop
         style="stop-color:#ff0000;stop-opacity:1"
         offset="0"
         id="stop5657" />
      <stop
         id="stop5665"
         offset="0.027777778"
         style="stop-color:#fe2b00;stop-opacity:1" />
      <stop
         style="stop-color:#fe5400;stop-opacity:1"
         offset="0.055555556"
         id="stop5667" />
      <stop
         id="stop5669"
         offset="0.0833333358"
         style="stop-color:#fe7f00;stop-opacity:1" />
      <stop
         style="stop-color:#feaa00;stop-opacity:1"
         offset="0.1111111119"
         id="stop5671" />
      <stop
         id="stop5673"
         offset="0.1388888955"
         style="stop-color:#fed400;stop-opacity:1" />
      <stop
         style="stop-color:#fcfd00;stop-opacity:1"
         offset="0.1666666716"
         id="stop5675" />
      <stop
         id="stop5677"
         offset="0.1944444478"
         style="stop-color:#d3fe00;stop-opacity:1" />
      <stop
         style="stop-color:#a9fe00;stop-opacity:1"
         offset="0.2222222239"
         id="stop5679" />
      <stop
         id="stop5681"
         offset="0.25"
         style="stop-color:#7dfe00;stop-opacity:1" />
      <stop
         style="stop-color:#52fe00;stop-opacity:1"
         offset="0.277777791"
         id="stop5683" />
      <stop
         id="stop5685"
         offset="0.3055555522"
         style="stop-color:#29fe00;stop-opacity:1" />
      <stop
         style="stop-color:#00fe02;stop-opacity:1"
         offset="0.3333333433"
         id="stop5687" />
      <stop
         id="stop5689"
         offset="0.3611111343"
         style="stop-color:#00fe2d;stop-opacity:1" />
      <stop
         style="stop-color:#00fe56;stop-opacity:1"
         offset="0.3888888955"
         id="stop5691" />
      <stop
         id="stop5693"
         offset="0.4166666865"
         style="stop-color:#00fe82;stop-opacity:1" />
      <stop
         style="stop-color:#00fead;stop-opacity:1"
         offset="0.4444444478"
         id="stop5695" />
      <stop
         id="stop5697"
         offset="0.4722222388"
         style="stop-color:#00fed6;stop-opacity:1" />
      <stop
         style="stop-color:#00fbfe;stop-opacity:1"
         offset="0.5"
         id="stop5699" />
      <stop
         id="stop5701"
         offset="0.527777791"
         style="stop-color:#00d0fe;stop-opacity:1" />
      <stop
         style="stop-color:#00a7fe;stop-opacity:1"
         offset="0.555555582"
         id="stop5703" />
      <stop
         id="stop5705"
         offset="0.5833333731"
         style="stop-color:#007afe;stop-opacity:1" />
      <stop
         style="stop-color:#0050fe;stop-opacity:1"
         offset="0.6111111045"
         id="stop5707" />
      <stop
         id="stop5709"
         offset="0.6388888955"
         style="stop-color:#0026fe;stop-opacity:1" />
      <stop
         style="stop-color:#0500fe;stop-opacity:1"
         offset="0.6666666865"
         id="stop5711" />
      <stop
         id="stop5713"
         offset="0.6944444776"
         style="stop-color:#3000fe;stop-opacity:1" />
      <stop
         style="stop-color:#5900fe;stop-opacity:1"
         offset="0.7222222686"
         id="stop5715" />
      <stop
         id="stop5717"
         offset="0.75"
         style="stop-color:#8500fe;stop-opacity:1" />
      <stop
         style="stop-color:#b000fe;stop-opacity:1"
         offset="0.777777791"
         id="stop5719" />
      <stop
         id="stop5721"
         offset="0.805555582"
         style="stop-color:#d900fe;stop-opacity:1" />
      <stop
         style="stop-color:#fe00f9;stop-opacity:1"
         offset="0.8333333731"
         id="stop5723" />
      <stop
         id="stop5725"
         offset="0.8611111641"
         style="stop-color:#fe00ce;stop-opacity:1" />
      <stop
         style="stop-color:#fe00a4;stop-opacity:1"
         offset="0.8888888955"
         id="stop5727" />
      <stop
         id="stop5729"
         offset="0.9166666865"
         style="stop-color:#fe0079;stop-opacity:1" />
      <stop
         style="stop-color:#fe004e;stop-opacity:1"
         offset="0.9444444776"
         id="stop5731" />
      <stop
         id="stop5733"
         offset="0.9722222686"
         style="stop-color:#fe0025;stop-opacity:1" />
      <stop
         style="stop-color:#ff0000;stop-opacity:1"
         offset="1"
         id="stop5659" />
    </linearGradient>
    <filter
       style="color-interpolation-filters:sRGB"
       id="filter6541"
       inkscape:label="dither">
      <feTurbulence
         id="feTurbulence6543"
         type="fractalNoise"
         baseFrequency="1"
         numOctaves="10"
         result="result2" />
      <feTurbulence
         numOctaves="10"
         baseFrequency="1"
         type="fractalNoise"
         id="feTurbulence6545"
         result="result1" />
      <feDisplacementMap
         in2="result1"
         id="feDisplacementMap6547"
         in="result2"
         xChannelSelector="R"
         yChannelSelector="G"
         scale="36"
         result="result3" />
      <feDisplacementMap
         in2="result3"
         id="feDisplacementMap6559"
         in="SourceGraphic"
         xChannelSelector="B"
         scale="12"
         yChannelSelector="G"
         result="result5" />
      <feDisplacementMap
         yChannelSelector="A"
         in2="result3"
         id="feDisplacementMap6549"
         in="SourceGraphic"
         xChannelSelector="B"
         scale="36"
         result="result4" />
      <feComposite
         in2="SourceGraphic"
         id="feComposite6569"
         operator="over"
         in="result5"
         result="result6" />
      <feComposite
         in2="result6"
         id="feComposite6571"
         in="result4"
         result="result7" />
      <feComposite
         in2="SourceGraphic"
         id="feComposite6573"
         operator="in" />
    </filter>
    <linearGradient
       inkscape:collect="always"
       xlink:href="#linearGradient5661"
       id="linearGradient4594"
       x1="2080"
       y1="402.51956"
       x2="3160"
       y2="1002.5195"
       gradientUnits="userSpaceOnUse"
       spreadMethod="repeat" />
  </defs>
  <sodipodi:namedview
     id="base"
     pagecolor="#ffffff"
     bordercolor="#666666"
     borderopacity="1.0"
     inkscape:pageopacity="0.0"
     inkscape:pageshadow="2"
     inkscape:zoom="0.16860078"
     inkscape:cx="-249.04024"
     inkscape:cy="1803.6085"
     inkscape:document-units="mm"
     inkscape:current-layer="layer1"
     showgrid="true"
     inkscape:window-width="1817"
     inkscape:window-height="1046"
     inkscape:window-x="-11"
     inkscape:window-y="-11"
     inkscape:window-maximized="1">
    <inkscape:grid
       type="xygrid"
       id="grid5776"
       dotted="true"
       originx="10.583334"
       originy="391.58329" />
  </sodipodi:namedview>
  <metadata
     id="metadata5228">
    <rdf:RDF>
      <cc:Work
         rdf:about="">
        <dc:format>image/svg+xml</dc:format>
        <dc:type
           rdf:resource="http://purl.org/dc/dcmitype/StillImage" />
        <dc:title></dc:title>
      </cc:Work>
    </rdf:RDF>
  </metadata>
  <g
     inkscape:label="Layer 1"
     inkscape:groupmode="layer"
     id="layer1"
     transform="translate(10.583333,158.08337)">
    <path
       style="opacity:1;fill:url(#linearGradient4594);fill-opacity:1;stroke:none;stroke-width:1.99999988;stroke-linecap:square;stroke-linejoin:round;stroke-miterlimit:4;stroke-dasharray:none;stroke-opacity:1"
       d="m -40,-597.48047 v 160 h 160 v -160 z m 160,160 v 160 h 160 v -160 z m 160,0 h 160 v -160 H 280 Z m 160,0 v 160 h 160 v -160 z m 160,0 h 160 v -160 H 600 Z m 160,0 v 160 h 160 v -160 z m 160,0 h 160 v -160 H 920 Z m 160,0 v 160 h 160 v -160 z m 160,0 h 160 v -160 h -160 z m 160,0 v 160 h 160 v -160 z m 160,0 h 160 v -160 h -160 z m 160,0 v 160 h 160 v -160 z m 160,0 h 160 v -160 h -160 z m 160,0 v 160 h 160 v -160 z m 160,0 h 160 v -160 h -160 z m 160,0 v 160 h 160 v -160 z m 160,0 h 160 v -160 h -160 z m 160,0 v 160 h 160 v -160 z m 160,0 h 160 v -160 h -160 z m 160,0 v 160 h 160 v -160 z m 0,160 h -160 v 160 h 160 z m 0,160 V 42.519531 h 160 V -117.48047 Z m 0,160.000001 H 2840 V 202.51953 h 160 z m 0,159.999999 v 160 h 160 v -160 z m 0,160 h -160 v 160 h 160 z m 0,160 v 160 h 160 v -160 z m 0,160 h -160 v 160 h 160 z m 0,160 v 159.99997 h 160 V 842.51953 Z m 0,159.99997 h -160 v 160 h 160 z m 0,160 v 160 h 160 v -160 z m 0,160 h -160 v 160 h 160 z m 0,160 v 160 h 160 v -160 z m 0,160 h -160 v 160 h 160 z m 0,160 v 160 h 160 v -160 z m 0,160 h -160 v 160 h 160 z m 0,160 v 160 h 160 v -160 z m 0,160 h -160 v 160 h 160 z m 0,160 v 160 h 160 v -160 z m -160,0 h -160 v 160 h 160 z m -160,0 v -160 h -160 v 160 z m -160,0 h -160 v 160 h 160 z m -160,0 v -160 h -160 v 160 z m -160,0 h -160 v 160 h 160 z m -160,0 v -160 h -160 v 160 z m -160,0 h -160 v 160 h 160 z m -160,0 v -160 h -160 v 160 z m -160,0 h -160 v 160 h 160 z m -160,0 v -160 h -160 v 160 z m -160,0 h -160 v 160 h 160 z m -160,0 v -160 H 920 v 160 z m -160,0 H 760 v 160 h 160 z m -160,0 v -160 H 600 v 160 z m -160,0 H 440 v 160 h 160 z m -160,0 v -160 H 280 v 160 z m -160,0 H 120 v 160 h 160 z m -160,0 v -160 H -40 v 160 z m 0,-160 h 160 v -160 H 120 Z m 0,-160 v -160 H -40 v 160 z m 0,-160 h 160 v -160 H 120 Z m 0,-160 v -160 H -40 v 160 z m 0,-160 h 160 v -160 H 120 Z m 0,-160 v -160 H -40 v 160 z m 0,-160 h 160 v -160 H 120 Z m 0,-160 v -160 H -40 v 160 z m 0,-160 H 280 V 842.51953 H 120 Z m 0,-159.99997 v -160 H -40 v 160 z m 0,-160 h 160 v -160 H 120 Z m 0,-160 v -160 H -40 v 160 z m 0,-160 h 160 v -160 H 120 Z m 0,-160 V 42.519531 H -40 V 202.51953 Z M 120,42.519531 H 280 V -117.48047 H 120 Z m 0,-160.000001 v -160 H -40 v 160 z m 160,0 h 160 v -160 H 280 Z m 160,0 V 42.519531 H 600 V -117.48047 Z m 160,0 h 160 v -160 H 600 Z m 160,0 V 42.519531 H 920 V -117.48047 Z m 160,0 h 160 v -160 H 920 Z m 160,0 V 42.519531 h 160 V -117.48047 Z m 160,0 h 160 v -160 h -160 z m 160,0 V 42.519531 h 160 V -117.48047 Z m 160,0 h 160 v -160 h -160 z m 160,0 V 42.519531 h 160 V -117.48047 Z m 160,0 h 160 v -160 h -160 z m 160,0 V 42.519531 h 160 V -117.48047 Z m 160,0 h 160 v -160 h -160 z m 160,0 V 42.519531 h 160 V -117.48047 Z m 160,0 h 160 v -160 h -160 z m 160,0 V 42.519531 h 160 V -117.48047 Z m 0,160.000001 H 2520 V 202.51953 h 160 z m 0,159.999999 v 160 h 160 v -160 z m 0,160 h -160 v 160 h 160 z m 0,160 v 160 h 160 v -160 z m 0,160 h -160 v 160 h 160 z m 0,160 v 159.99997 h 160 V 842.51953 Z m 0,159.99997 h -160 v 160 h 160 z m 0,160 v 160 h 160 v -160 z m 0,160 h -160 v 160 h 160 z m 0,160 v 160 h 160 v -160 z m 0,160 h -160 v 160 h 160 z m 0,160 v 160 h 160 v -160 z m 0,160 h -160 v 160 h 160 z m 0,160 v 160 h 160 v -160 z m -160,0 h -160 v 160 h 160 z m -160,0 v -160 h -160 v 160 z m -160,0 h -160 v 160 h 160 z m -160,0 v -160 h -160 v 160 z m -160,0 h -160 v 160 h 160 z m -160,0 v -160 h -160 v 160 z m -160,0 h -160 v 160 h 160 z m -160,0 v -160 h -160 v 160 z m -160,0 h -160 v 160 h 160 z m -160,0 v -160 H 920 v 160 z m -160,0 H 760 v 160 h 160 z m -160,0 v -160 H 600 v 160 z m -160,0 H 440 v 160 h 160 z m -160,0 v -160 H 280 v 160 z m 0,-160 h 160 v -160 H 440 Z m 0,-160 v -160 H 280 v 160 z m 0,-160 h 160 v -160 H 440 Z m 0,-160 v -160 H 280 v 160 z m 0,-160 h 160 v -160 H 440 Z m 0,-160 v -160 H 280 v 160 z m 0,-160 H 600 V 842.51953 H 440 Z m 0,-159.99997 v -160 H 280 v 160 z m 0,-160 h 160 v -160 H 440 Z m 0,-160 v -160 H 280 v 160 z m 0,-160 h 160 v -160 H 440 Z m 0,-160 V 42.519531 H 280 V 202.51953 Z m 160,0 H 760 V 42.519531 H 600 Z m 160,0 v 160 h 160 v -160 z m 160,0 h 160 V 42.519531 H 920 Z m 160,0 v 160 h 160 v -160 z m 160,0 h 160 V 42.519531 h -160 z m 160,0 v 160 h 160 v -160 z m 160,0 h 160 V 42.519531 h -160 z m 160,0 v 160 h 160 v -160 z m 160,0 h 160 V 42.519531 h -160 z m 160,0 v 160 h 160 v -160 z m 160,0 h 160 V 42.519531 h -160 z m 160,0 v 160 h 160 v -160 z m 0,160 h -160 v 160 h 160 z m 0,160 v 160 h 160 v -160 z m 0,160 h -160 v 160 h 160 z m 0,160 v 159.99997 h 160 V 842.51953 Z m 0,159.99997 h -160 v 160 h 160 z m 0,160 v 160 h 160 v -160 z m 0,160 h -160 v 160 h 160 z m 0,160 v 160 h 160 v -160 z m 0,160 h -160 v 160 h 160 z m 0,160 v 160 h 160 v -160 z m -160,0 h -160 v 160 h 160 z m -160,0 v -160 h -160 v 160 z m -160,0 h -160 v 160 h 160 z m -160,0 v -160 h -160 v 160 z m -160,0 h -160 v 160 h 160 z m -160,0 v -160 h -160 v 160 z m -160,0 h -160 v 160 h 160 z m -160,0 v -160 H 920 v 160 z m -160,0 H 760 v 160 h 160 z m -160,0 v -160 H 600 v 160 z m 0,-160 h 160 v -160 H 760 Z m 0,-160 v -160 H 600 v 160 z m 0,-160 h 160 v -160 H 760 Z m 0,-160 v -160 H 600 v 160 z m 0,-160 H 920 V 842.51953 H 760 Z m 0,-159.99997 v -160 H 600 v 160 z m 0,-160 h 160 v -160 H 760 Z m 0,-160 v -160 H 600 v 160 z m 160,0 h 160 v -160 H 920 Z m 160,0 v 160 h 160 v -160 z m 160,0 h 160 v -160 h -160 z m 160,0 v 160 h 160 v -160 z m 160,0 h 160 v -160 h -160 z m 160,0 v 160 h 160 v -160 z m 160,0 h 160 v -160 h -160 z m 160,0 v 160 h 160 v -160 z m 0,160 h -160 v 160 h 160 z m 0,160 v 159.99997 h 160 V 842.51953 Z m 0,159.99997 h -160 v 160 h 160 z m 0,160 v 160 h 160 v -160 z m 0,160 h -160 v 160 h 160 z m 0,160 v 160 h 160 v -160 z m -160,0 h -160 v 160 h 160 z m -160,0 v -160 h -160 v 160 z m -160,0 h -160 v 160 h 160 z m -160,0 v -160 h -160 v 160 z m -160,0 h -160 v 160 h 160 z m -160,0 v -160 H 920 v 160 z m 0,-160 h 160 v -160 h -160 z m 0,-160 v -160 H 920 v 160 z m 0,-160 h 160 V 842.51953 h -160 z m 0,-159.99997 v -160 H 920 v 160 z m 160,0 h 160 v -160 h -160 z m 160,0 v 159.99997 h 160 V 842.51953 Z m 160,0 h 160 v -160 h -160 z m 160,0 v 159.99997 h 160 V 842.51953 Z m 0,159.99997 h -160 v 160 h 160 z m 0,160 v 160 h 160 v -160 z m -160,0 h -160 v 160 h 160 z m -160,0 v -160 h -160 v 160 z"
       transform="scale(0.26458333)"
       id="use8066"
       inkscape:connector-curvature="0" />
  </g>
</svg>
