<!-- icon666.com - MILLIONS vector ICONS FREE --><svg id="Layer_1" viewBox="0 0 512 512" xmlns="http://www.w3.org/2000/svg"><g><g><path d="m160 352h192v48h-192z" fill="#4182c3"></path></g><g><path d="m312 139.719v-43.719h-24v96h40v-22.385c0-6.007-3.002-11.616-8-14.948-4.998-3.332-8-8.942-8-14.948z" fill="#555a6e"></path></g><g><path d="m200 139.719v-43.719h24v96h-40v-22.385c0-6.007 3.002-11.616 8-14.948 4.998-3.332 8-8.942 8-14.948z" fill="#555a6e"></path></g><g><path d="m224 146.667h64v45.333h-64z" fill="#4182c3"></path></g><g><path d="m360 352h-208c-13.255 0-24-10.745-24-24v-67c0-38.108 30.892-69 69-69h118c38.108 0 69 30.892 69 69v67c0 13.255-10.745 24-24 24z" fill="#4182c3"></path></g><g><path d="m328 328v-136h-40v64c0 53.019-42.981 96-96 96h-32v16h192v-16c-13.255 0-24-10.745-24-24z" fill="#f06423"></path></g><g><path d="m136 352h5.333c13.255 0 24-10.745 24-24v-88h-53.333v88c0 13.255 10.745 24 24 24z" fill="#64afe1"></path></g><g><path d="m370.667 352h5.333c13.255 0 24-10.745 24-24v-72h-53.333v72c0 13.255 10.745 24 24 24z" fill="#4182c3"></path></g><g><path d="m296 224h-8v-48h40v16c0 17.673-14.327 32-32 32z" fill="#555a6e"></path></g><g><path d="m216 224h8v-48h-40v16c0 17.673 14.327 32 32 32z" fill="#555a6e"></path></g><g><path d="m272 176h-32c-17.673 0-32-14.327-32-32v-48c0-26.51 21.49-48 48-48 26.51 0 48 21.49 48 48v48c0 17.673-14.327 32-32 32z" fill="#64afe1"></path></g><g><path d="m237.333 117.333h-2.667c-5.891 0-10.667-4.776-10.667-10.667h24c.001 5.892-4.775 10.667-10.666 10.667z" fill="#4182c3"></path></g><path d="m277.333 96h-10.667c-5.89 0-10.666 4.775-10.666 10.667v37.333l8-8v-29.333c0 5.891 4.776 10.666 10.667 10.666h2.667c5.891 0 10.667-4.775 10.667-10.666-.001-5.892-4.777-10.667-10.668-10.667z" fill="#4182c3"></path><g><path d="m400 496h-288c-26.51 0-48-21.49-48-48 0-26.51 21.49-48 48-48h288c26.51 0 48 21.49 48 48 0 26.51-21.49 48-48 48z" fill="#64afe1"></path></g><g><circle cx="256" cy="40" fill="#463c4b" r="24"></circle></g><g><path d="m208 112v-16c0-17.673 14.327-32 32-32h32c17.673 0 32 14.327 32 32v16c4.418 0 8-3.582 8-8v-24c0-17.673-14.327-32-32-32h-48c-17.673 0-32 14.327-32 32v24c0 4.418 3.582 8 8 8z" fill="#555a6e"></path></g><g><path d="m368 448h-64v-48h64c8.837 0 16 7.163 16 16v16c0 8.837-7.163 16-16 16z" fill="#64afe1"></path></g><g><path d="m304 136v-32c8.837 0 16 7.163 16 16 0 8.837-7.163 16-16 16z" fill="#4182c3"></path></g><g><path d="m208 136v-32c-8.837 0-16 7.163-16 16 0 8.837 7.163 16 16 16z" fill="#4182c3"></path></g><g><path d="m253.333 448c30.734-30.734 72.418-48 115.882-48h30.785c26.51 0 48 21.49 48 48 0 26.51-21.49 48-48 48h-272 9.451c43.464 0 85.148-17.266 115.882-48z" fill="#4182c3"></path></g><g><path d="m368 448h-128v-48h128c8.837 0 16 7.163 16 16v16c0 8.837-7.163 16-16 16z" fill="#64afe1"></path></g><g><path d="m160 384h192v16h-192z" fill="#f06423"></path></g><g><path d="m160 368h192v16h-192z" fill="#a5c3dc"></path></g><g><path d="m160 368h96v16h-96z" fill="#d7e6f0"></path></g><g><path d="m160 384h96v16h-96z" fill="#faa019"></path></g><g><path d="m256 92c-2.209 0-4-1.791-4-4v-16c0-2.209 1.791-4 4-4s4 1.791 4 4v16c0 2.209-1.791 4-4 4z" fill="#555a6e"></path></g><g><path d="m149.333 184c-2.945 0-5.333 2.388-5.333 5.333v-8c0-2.945-2.388-5.333-5.333-5.333-2.946 0-5.333 2.388-5.333 5.333v8c0-2.945-2.388-5.333-5.333-5.333s-5.333 2.388-5.333 5.333v16c0-2.945-2.388-5.333-5.333-5.333s-5.333 2.388-5.333 5.333v34.667h42.667v-50.667c-.002-2.945-2.39-5.333-5.336-5.333z" fill="#f0915a"></path><path d="m160 216c-2.945 0-5.333 2.388-5.333 5.333v10.667h-34.667c-4.418 0-8 3.582-8 8v5.333c0 14.728 11.939 26.667 26.667 26.667 14.728 0 26.667-11.939 26.667-26.667v-24c-.001-2.945-2.389-5.333-5.334-5.333z" fill="#fab991"></path></g><g><path d="m368 112h16v288h-16z" fill="#555a6e"></path></g><g><path d="m384 304h-21.333c-8.837 0-16-7.163-16-16v-32c0-8.837 7.163-16 16-16h21.333c8.837 0 16 7.163 16 16v32c0 8.837-7.163 16-16 16z" fill="#64afe1"></path></g><path d="m421.657 26.344c-3.124-3.123-8.189-3.124-11.314-.001-6.67 6.67-10.343 15.537-10.343 24.97v28.687c0 8.822-7.178 16-16 16v-72c0-4.418-3.582-8-8-8s-8 3.582-8 8v72c-8.822 0-16-7.178-16-16v-28.687c0-9.434-3.673-18.301-10.343-24.971-3.125-3.123-8.19-3.124-11.314.001-3.124 3.124-3.124 8.189 0 11.313 3.648 3.647 5.657 8.497 5.657 13.656v28.688c0 17.645 14.355 32 32 32h16c17.645 0 32-14.355 32-32v-28.687c0-5.159 2.009-10.009 5.657-13.656 3.124-3.124 3.124-8.189 0-11.313z" fill="#faa019"></path><g><path d="m368 112h16v16h-16z" fill="#f06423"></path></g><g><path d="m344 128c0-9.092-7.582-16.411-16.768-15.982-8.101.379-14.779 7.012-15.209 15.111-.167 3.141.575 6.093 1.984 8.624 3.722 6.681 5.993 14.07 5.993 21.717v2.53c0 8.837-7.163 16-16 16h-87.726c-4.261 0-7.981 3.215-8.257 7.467-.302 4.659 3.388 8.533 7.983 8.533h88c17.673 0 32-14.327 32-32v-1.436c0-7.856 1.796-15.697 5.792-22.461 1.402-2.375 2.208-5.144 2.208-8.103z" fill="#5faa46"></path></g><g><path d="m256 192h-40c-4.418 0-8-3.582-8-8 0-4.418 3.582-8 8-8h40c4.418 0 8 3.582 8 8 0 4.418-3.582 8-8 8z" fill="#91c83c"></path></g></g></svg>