<!-- icon666.com - MILLIONS vector ICONS FREE --><svg id="Glyph" enable-background="new 0 0 32 32" viewBox="0 0 32 32" xmlns="http://www.w3.org/2000/svg"><path d="m27.77 21.17c-2.556 3.164-5.268 5.33-9.77 5.33-.36 0-.72-.02-1.08-.05-.41.62-.75 1.3-1.01 2.05h-3.91v-1.75c0-.41-.34-.75-.75-.75s-.75.34-.75.75v1.75h-3v-1.43c0-1.76.62-3.41 1.68-4.7-.378-.453-.513-.624-.91-1.26-1.42 1.59-2.27 3.69-2.27 5.96v2.43c0 .28.22.5.5.5h23c.28 0 .5-.22.5-.5v-2.43c0-2.24-.83-4.32-2.23-5.9zm.73 7.33h-3v-1.5c0-1.09.86-2.22 2.32-3.05.44.95.68 2.01.68 3.12z"></path><path d="m19 12v1c0 .552-.448 1-1 1s-1-.448-1-1v-1z"></path><path d="m15.066 4.5c-.028-.165-.066-.327-.066-.5 0-1.657 1.343-3 3-3s3 1.343 3 3c0 .173-.038.335-.066.5z"></path><path d="m23.732 18.547c.641-1.032 1.018-2.245 1.018-3.547v-3c0-2.613-1.495-4.878-3.672-6h-6.156c-2.177 1.122-3.672 3.387-3.672 6v3c0 1.3.376 2.512 1.016 3.544-.406.127-.801.277-1.176.456-.49-.86-.84-1.74-1.19-2.6-1.06-2.64-2.15-5.37-6.89-5.4-.01 0-.01 0-.01 0-.55 0-1 .44-1 .99 0 .07.01.14.02.21.1.45.49.8.97.8.39.002.819-.014 1.045.218 1.482 1.518 1.257 3.435 3.923 3.719.027.068.054.134.082.204.473 1.195 1.312 3.18 2.21 4.16 1.88 2.329 4.75 3.699 7.75 3.699.1-.025 4.723.295 8.05-4.06.13-.18.38-.5.63-.82-.755-.639-1.792-1.21-2.948-1.573zm-10.982-6.547c0-.386.048-.761.128-1.124 1.27-1.097 3.281-1.276 5.122.122 1.842-1.398 3.852-1.219 5.122-.122.08.363.128.737.128 1.124v3c0 2.895-2.355 5.25-5.25 5.25s-5.25-2.355-5.25-5.25zm5.25 11c-2.31 0-4.53-1.02-6.03-2.74.422-.19.867-.328 1.324-.43 1.217 1.186 2.876 1.92 4.706 1.92 1.829 0 3.489-.734 4.706-1.921.454.102.893.237 1.314.411-1.56 1.77-3.72 2.76-6.02 2.76z"></path><path d="m13 4.5c0 1.933-1.567 3.5-3.5 3.5-.978 0-1.86-.403-2.495-1.05 2.224.318 3.995-1.413 3.995-3.45 0-.955-.385-1.819-1.005-2.45 1.697.242 3.005 1.687 3.005 3.45z"></path></svg>