<!-- icon666.com - MILLIONS vector ICONS FREE --><svg id="Layer_1" enable-background="new 0 0 74 74" viewBox="0 0 74 74" xmlns="http://www.w3.org/2000/svg"><g><path d="m63.54 40.75c-.18-.14-.42-.15-.61-.03-.18.13-.26.37-.18.58.32.93.25 1.96-.18 2.88-.45.96-1.23 1.68-2.22 2.04-.95.34-1.98.31-2.89-.09l-.33-1.98.63-1.24 2.53-1.63c.12-.07.2-.2.22-.34l1.6-9.91c.04-.21-.07-.42-.26-.52s-.43-.06-.58.09l-7.12 7.06c-.1.1-.16.24-.15.38l.15 3.01-.65 1.26-1.59.96c-1.79-1.09-2.41-3.42-1.38-5.27.5-.89 1.3-1.53 2.25-1.82.22-.06.36-.26.36-.48 0-.23-.15-.42-.37-.48-2.47-.66-5.07.45-6.32 2.69-.74 1.32-.92 2.84-.51 4.28.4 1.45 1.35 2.65 2.66 3.39.6.34 1.25.56 1.93.65l.28 1.32-2.02 3.93c-.42-.28-.89-.51-1.38-.69-1.89-4.18-2.76-8.76-2.52-13.28 0 0 .07-1.32.07-1.34.19-3.57.36-7.25-.36-10.9-.48-2.66-2.03-4.87-4.14-6.2.46-.66.72-1.43.72-2.24 0-2.11-1.68-3.82-3.77-3.9.65-.85 1.03-1.91 1.03-3 0-2.72-2.21-4.93-4.93-4.93-1.83 0-3.46 1.01-4.34 2.62-.85-.83-1.96-1.38-3.15-1.51-.21-.02-.4.09-.5.28-.09.18-.06.41.08.56.57.61.88 1.41.88 2.26 0 1.87-1.52 3.39-3.39 3.39-.84 0-1.64-.31-2.25-.87-.16-.14-.38-.17-.56-.08s-.29.28-.28.49c.24 3.04 2.33 4.75 5.87 4.9.04.73.28 1.43.7 2.02-2.11 1.34-3.66 3.55-4.14 6.21 0 .02-.01.03-.01.04-.7 3.6-.55 7.27-.35 10.83 0 .03.07 1.37.07 1.37.14 2.52-.09 5.06-.64 7.55-2.14-.69-3.63-2.07-4.36-3.99 1.7-1.41 2.87-3.91 2.87-6.2 0-1.49-.51-2.65-1.48-3.48-.04-.48-.24-.94-.57-1.3-.42-.46-1.02-.72-1.64-.72h-4.2c-.63 0-1.23.26-1.65.72-.33.37-.52.83-.56 1.31-.97.82-1.49 2.01-1.49 3.47 0 2.75 1.68 5.72 3.85 6.87 1.13 3.56 3.78 6.84 7.74 8.09-.13.32-.26.64-.4.96-2.69.99-4.48 3.5-4.48 6.39v9.03c0 1.54 1.26 2.79 2.8 2.79h31.17c1.54 0 2.79-1.25 2.79-2.79v-9.03c0-.76-.12-1.5-.36-2.19.02-.02.05-.03.06-.06l2.82-5.5 1.46-.47c.48.51 1.04.92 1.67 1.21 1.37.64 2.9.71 4.31.2s2.54-1.55 3.18-2.91c1.1-2.33.48-5.09-1.49-6.71zm-17.39 9.62-5.01-1.52c.21-.31.32-.67.32-1.05 0-.52-.2-1-.56-1.37s-.85-.57-1.37-.57c-.34 0-.65.09-.94.26v-.67c1.87-1.38 3.16-3.48 3.45-5.9.7-.09 1.33-.39 1.82-.85-.04 3.98.75 7.97 2.29 11.67zm-8.53-3.46c-2.39 1.91-5.82 1.91-8.21 0 .02-.05.03-.1.03-.15v-.66c1.23.67 2.62 1.03 4.07 1.03 1.48 0 2.87-.38 4.08-1.04v.67c0 .05.01.1.03.15zm-4.11-.78c-1.53 0-2.98-.45-4.21-1.28-.01-.01-.02-.01-.03-.02-.4-.27-.77-.58-1.12-.93-1.44-1.43-2.23-3.34-2.23-5.36v-7.37c.01-1.47 1.68-2.67 3.72-2.67 1.51 0 2.86.65 3.44 1.67.09.15.25.25.43.25s.35-.1.44-.25c.57-1.02 1.92-1.67 3.43-1.67 2.04 0 3.71 1.2 3.72 2.67v7.37c0 4.18-3.4 7.59-7.59 7.59zm5.36 1c.18-.17.41-.27.66-.27s.49.1.66.28c.18.17.27.41.27.66 0 .24-.09.48-.27.65-1.78 1.78-4.15 2.76-6.67 2.76-2.53 0-4.9-.99-6.69-2.77-.17-.17-.27-.41-.27-.66s.1-.48.27-.66c.19-.18.42-.27.66-.27s.48.09.66.27c2.96 2.96 7.76 2.96 10.72.01zm3.23-8.59v-4.62c1.04.22 1.83 1.14 1.86 2.24-.01.09-.01.19-.02.28-.09 1.04-.84 1.88-1.84 2.1zm-1.92-21.71c0 .64-.22 1.24-.59 1.74-1.17-.57-2.46-.88-3.82-.88h-4.52c-1.35 0-2.65.31-3.81.88-.37-.5-.59-1.1-.59-1.74 0-.78.3-1.51.86-2.06.53-.54 1.28-.85 2.05-.85h7.51c1.6 0 2.91 1.31 2.91 2.91zm-10.39-8.16c.6-1.62 2.06-2.67 3.72-2.67 2.17 0 3.93 1.76 3.93 3.93 0 1.16-.53 2.26-1.41 2.99h-5.05c-.43-.41-1.99-2.09-1.19-4.25zm-3.86 7.38c-2.59-.1-4.18-1.06-4.73-2.88.58.28 1.23.43 1.89.43 2.42 0 4.39-1.97 4.39-4.39 0-.63-.13-1.25-.39-1.81.64.26 1.21.68 1.67 1.22-.54 1.81.18 3.36.89 4.31-1 .03-1.96.43-2.65 1.14-.55.55-.92 1.23-1.07 1.98zm-2.53 9.46v-.03c.01-.01.01-.02.01-.03.71-3.92 4.01-6.76 7.84-6.76h4.52c3.84 0 7.14 2.84 7.84 6.67 0 .04.01.09.02.15.38 1.93.5 3.85.5 5.81 0 .87-.03 1.75-.06 2.64-.51-.55-1.2-.93-1.97-1.05v-1.74c0-1.03-.52-1.95-1.37-2.61s-2.03-1.06-3.35-1.06c-1.56 0-3 .6-3.87 1.57-.86-.97-2.3-1.57-3.87-1.57-2.63 0-4.7 1.61-4.72 3.67v1.74c-.77.12-1.45.49-1.96 1.04-.12-2.87-.11-5.65.44-8.44zm1.52 8.41v4.62c-.96-.21-1.7-1.01-1.83-2-.01-.14-.02-.27-.02-.4.04-1.09.82-2 1.85-2.22zm-2.57 11.93c0-.01.01-.01.01-.02.01-.03.01-.05.01-.07.55-2.32.82-4.69.8-7.05.49.45 1.12.75 1.82.84.22 1.91 1.07 3.68 2.45 5.06.31.31.65.59 1 .85v.65c-.74-.42-1.69-.32-2.31.31-.37.36-.57.85-.57 1.36 0 .39.11.76.32 1.07l-5.01 1.52c.61-1.47 1.11-2.98 1.48-4.52zm-4-12.05.09-1.01c.37.56.57 1.25.57 2.08 0 1.83-.89 3.88-2.18 5.14-.22-.99-.27-2.09-.13-3.29.9-.68 1.53-1.71 1.65-2.92zm-8.93 1.07c0-.83.2-1.51.58-2.08l.09 1.01c.11 1.19.73 2.21 1.61 2.89-.11 1.15-.05 2.36.19 3.57-1.42-1.23-2.47-3.4-2.47-5.39zm1.67-1.17-.19-1.99c-.04-.35.08-.69.31-.94.24-.26.56-.4.91-.4h4.2c.35 0 .67.14.9.4.24.26.35.59.32.94l-.19 1.99c-.15 1.63-1.5 2.86-3.13 2.86s-2.98-1.23-3.13-2.86zm1.57 3.55c.33.14.69.22 1.06.26v2.6c0 .28.22.5.5.5.27 0 .5-.22.5-.5v-2.6c.32-.04.63-.1.92-.21-.25 4.33 1.81 7.53 5.64 8.74-.25.96-.56 1.92-.9 2.86-5.06-1.58-7.96-7.05-7.72-11.65zm9.23 22.23c-.25.01-.5.21-.51.49-.01.24 0 .47.02.71-.01.04-.03.07-.03.11v7.21h-3.44c-.99 0-1.8-.8-1.8-1.79v-9.03c0-2.59 1.67-4.83 4.14-5.58l6.42-1.94c1.89 1.64 4.29 2.55 6.83 2.55 1.86 0 3.64-.5 5.2-1.4-1.67 4.32-4.22 10.24-8.62 14.7-2.15.42-4.32-.06-5.84-1.32-1.26-1.05-1.93-2.53-1.88-4.19.01-.28-.21-.51-.49-.52zm.48 8.52v-4.44c.34.51.75.99 1.25 1.4 1.34 1.11 3.11 1.71 4.96 1.71.11 0 .22-.02.32-.02-.53.47-1.08.93-1.67 1.35zm6.5 0c.62-.51 1.21-1.05 1.77-1.61.07-.05.12-.1.16-.16 5.03-5.1 7.69-11.98 9.38-16.42.06-.05.11-.1.17-.15l5.79 1.76c1.89 5.47 1.22 11.63-1.79 16.58zm22.02-1.79c0 .99-.8 1.79-1.79 1.79h-3.59c2.78-4.89 3.44-10.8 1.82-16.17 2.15.91 3.56 2.98 3.56 5.35zm13.24-19.17c-.53 1.12-1.46 1.97-2.62 2.39s-2.42.36-3.54-.17c-.61-.27-1.13-.68-1.56-1.19-.13-.16-.34-.22-.53-.16l-1.97.63c-.13.04-.23.13-.29.25l-2.6 5.06c-.37-.66-.85-1.25-1.42-1.76l2.18-4.25c.06-.1.07-.22.05-.33l-.4-1.85c-.05-.21-.23-.37-.46-.39-.66-.04-1.3-.23-1.88-.56-1.08-.61-1.86-1.6-2.19-2.79-.34-1.19-.19-2.44.42-3.52.76-1.36 2.11-2.21 3.59-2.35-.5.39-.93.89-1.25 1.47-1.32 2.37-.47 5.38 1.92 6.71l.12.07c.15.07.33.07.48-.02l1.96-1.19c.08-.04.14-.11.19-.2l.77-1.5c.04-.08.06-.16.05-.25l-.14-2.93 5.87-5.82-1.32 8.17-2.45 1.58c-.08.05-.14.12-.18.2l-.77 1.5c-.05.09-.07.2-.05.31l.41 2.4c.03.16.13.29.27.36l.13.07c1.19.56 2.53.63 3.77.18s2.23-1.36 2.78-2.55c.29-.6.44-1.23.47-1.87.75 1.28.85 2.88.19 4.3z"></path><path d="m27.36 63.6c.15 0 .3-.07.4-.19.17-.22.13-.53-.09-.7l-.05-.04c-.22-.17-.5-.11-.67.11s-.1.55.12.72c.07.06.18.1.29.1z"></path><path d="m38.1 35.41c-.58.43-1.54.43-2.11 0-.22-.17-.54-.12-.7.1-.17.22-.12.53.1.7.46.35 1.06.52 1.65.52s1.19-.17 1.65-.52c.22-.17.27-.48.1-.7-.16-.22-.47-.27-.69-.1z"></path><path d="m35.39 41.12c-1.02.76-2.74.76-3.74 0-.22-.17-.53-.12-.7.1s-.12.53.1.7c.69.52 1.58.78 2.47.78s1.78-.26 2.48-.78c.22-.17.27-.48.1-.7-.18-.22-.49-.26-.71-.1z"></path><path d="m32.04 35.51c-.16-.22-.48-.27-.7-.1-.58.43-1.54.43-2.11 0-.22-.17-.53-.12-.7.1s-.12.53.1.7c.46.35 1.06.52 1.65.52s1.19-.17 1.65-.52c.23-.16.27-.48.11-.7z"></path><path d="m35.45 65.77c-.22-.17-.5-.11-.67.11s-.1.55.12.72c.09.07.2.1.31.1.15 0 .3-.07.4-.19.17-.22.13-.53-.09-.7z"></path><path d="m40.29 64.19c-.22-.17-.5-.11-.67.11s-.1.55.12.72c.09.07.2.1.31.1.15 0 .3-.07.4-.19.17-.22.13-.53-.09-.7z"></path><path d="m44.93 62.61c-.22-.17-.5-.11-.67.11s-.1.55.12.72c.09.07.2.1.31.1.15 0 .3-.07.4-.19.17-.22.13-.53-.09-.7z"></path><path d="m45.5 54.25-.05-.04c-.22-.17-.5-.11-.67.11s-.1.55.12.72c.09.07.2.1.31.1.15 0 .3-.07.4-.19.14-.21.1-.53-.11-.7z"></path><path d="m43.32 59.19c.17-.22.13-.53-.09-.7l-.05-.04c-.22-.17-.5-.11-.67.11s-.1.55.12.72c.09.07.2.1.31.1.13.01.28-.06.38-.19z"></path><path d="m41.53 53.43c-.22-.17-.5-.11-.67.11s-.1.55.12.72c.09.07.2.1.31.1.15 0 .3-.07.4-.19.17-.22.13-.53-.09-.7z"></path><path d="m43.45 65.79c-.22-.17-.5-.11-.67.11s-.1.55.12.72c.09.07.2.1.31.1.15 0 .3-.07.4-.19.17-.22.13-.53-.09-.7z"></path><path d="m38.66 60.51c-.22-.17-.5-.11-.67.11s-.1.55.12.72c.09.07.2.1.31.1.15 0 .3-.07.4-.19.17-.22.13-.53-.09-.7z"></path><path d="m15.58 33.98c.15 0 .3-.07.4-.19.17-.22.13-.53-.09-.7l-.05-.04c-.22-.17-.51-.11-.68.11s-.11.55.11.72c.1.07.21.1.31.1z"></path><path d="m12.91 33.98c.15 0 .3-.07.39-.19.17-.22.13-.53-.08-.7l-.05-.04c-.22-.17-.51-.11-.68.1-.17.22-.11.55.11.72.09.07.2.11.31.11z"></path></g></svg>