<!-- icon666.com - MILLIONS vector ICONS FREE --><svg id="Layer_1" enable-background="new 0 0 512 512" viewBox="0 0 512 512" xmlns="http://www.w3.org/2000/svg"><g><path d="m133.401 479.157c3.611 2.091 7.277 4.099 11.002 6.008l220.534 1.323c4.586-2.281 9.096-4.69 13.513-7.244l57.41-45.909c40.424-43.689 65.141-102.123 65.141-166.338 0-135.311-109.691-245.002-245.002-245.002s-245.002 109.691-245.002 245.002c0 64.138 24.657 122.509 64.995 166.181z" fill="#b26847"></path><path d="m272.655 49.352h-33.472c-13.572 0-24.676-11.104-24.676-24.676.001-13.572 11.105-24.676 24.676-24.676h33.472c13.572 0 24.676 11.104 24.676 24.676 0 13.572-11.104 24.676-24.676 24.676z" fill="#37383d"></path><path d="m252.508 24.676c0-12.808 9.891-23.414 22.412-24.567-.747-.069-1.501-.109-2.265-.109h-33.472c-13.572 0-24.676 11.104-24.676 24.676 0 13.572 11.104 24.676 24.676 24.676h33.472c.763 0 1.518-.04 2.264-.109-12.52-1.153-22.411-11.759-22.411-24.567z" fill="#2a2b30"></path><path d="m341.15 132.281c-8.288-55.094-34.45-85.401-85.23-85.57-50.78.169-76.942 30.477-85.231 85.57-6.286 41.786-34.032 46.754-19.071 113.206 7.759 34.465 3.668 62.266 3.668 62.266l100.633 3.606 100.633-3.606s-4.091-27.801 3.668-62.266c14.962-66.452-12.784-71.421-19.07-113.206z" fill="#37383d"></path><path d="m360.221 245.487c2.419-10.743 3.716-19.872 4.173-27.817-39.939 22.003-48.802-15.081-48.802-15.081l-68.959-111.949c-11.7-19.599 4.534-30.605 4.534-30.605l-16.378-11.233c-37.059 7.705-57.05 36.619-64.1 83.478-6.286 41.786-34.032 46.754-19.071 113.206 7.759 34.465 3.668 62.266 3.668 62.266l100.633 3.606 100.633-3.606c.001.001-4.09-27.8 3.669-62.265z" fill="#2a2b30"></path><path d="m332.105 149.685c-3.15-2.886-9.423-1.423-12.135.344.594 3.7.628 7.486.115 11.224l-3.201 23.312c0 1.879-.059 3.723-.168 5.535 7.805 2.354 11.682-4.653 12.335-9.462.281-2.07.741-4.11 1.378-6.101 2.077-6.484 9.567-17.621 1.676-24.852z" fill="#7da2f4"></path><path d="m179.734 149.685c3.149-2.886 9.423-1.423 12.135.344-.594 3.7-.628 7.486-.115 11.224l3.201 23.312c0 1.879.059 3.723.168 5.535-7.805 2.354-11.682-4.653-12.335-9.462-.281-2.07-.741-4.11-1.378-6.101-2.077-6.484-9.567-17.621-1.676-24.852z" fill="#5c8fea"></path><path d="m435.861 433.336c-1.053-11.425-3.159-24.182-6.943-37.778 0 0 10.049-93.348-60.589-99.122-5.195-.425-7.959-2.441-14.082-5.893-15.291-8.622-30.838-15.004-47.943-18.951-7.792-7.792-9.768-22.566-10.123-32.902-4.067 4.737-8.335 8.699-12.413 11.865-7.945 6.17-17.75 9.521-27.848 9.521s-19.903-3.351-27.848-9.521c-4.078-3.167-8.346-7.129-12.413-11.866-.356 10.336-2.331 25.11-10.124 32.902-17.104 3.947-32.652 10.329-47.942 18.951-6.123 3.452-8.887 5.468-14.082 5.893-70.639 5.774-60.589 99.122-60.589 99.122-3.766 13.534-5.87 26.235-6.928 37.621 16.669 18.047 36.011 33.587 57.409 45.978 3.683-23.581 3.693-54.761 3.633-62.444.348 24.786 7.86 47.649 9.859 69.693 32.857 16.371 69.901 25.595 109.105 25.595 39.137 0 76.121-9.192 108.938-25.511 1.988-22.065 9.516-44.951 9.867-69.763-.06 7.717-.047 38.941 3.646 62.519 21.394-12.37 40.735-27.887 57.41-45.909z" fill="#7da2f4"></path><path d="m414.193 454.059-1.227-11.816s-5.299-10.077-7.773-34.882c-.72-7.22-2.506-13.177-4.676-17.993-3.567-7.917-15.154-6.769-17.115 1.69l-7.027 30.311-1.262 17.679c.412 12.327 1.331 27.387 3.338 40.196 12.68-7.331 24.632-15.776 35.742-25.185z" fill="#5c8fea"></path><path d="m215.658 238.69c-.356 10.336-2.331 25.11-10.124 32.902-17.104 3.947-32.652 10.329-47.942 18.951-6.123 3.452-8.887 5.468-14.082 5.893-70.639 5.774-60.589 99.122-60.589 99.122-3.766 13.534-5.87 26.235-6.928 37.621 16.669 18.047 36.011 33.587 57.409 45.978 3.683-23.581 3.693-54.761 3.633-62.444.348 24.786 7.86 47.649 9.859 69.693 31.132 15.511 66.026 24.592 102.951 25.504-9.984-5.2-9.619-17.269-9.619-17.269l-7.225-13.585c-8.874-2.07-6.711-9.598-6.711-9.598l-17.628-8.714c-22.589 0-22.372-17.351-22.372-17.351-10.044-2.94-6.522-11.284-6.522-11.284s-4.268-11.609-9.149-53.159 51.939-44.533 51.939-44.533c-7.109-21.25 16.198-22.71 16.198-22.71-5.995-17.668 10.548-23.567 10.548-23.567 7.803-14.36 6.616-30.064 6.616-30.064-10.098 0-19.903-3.351-27.848-9.521-4.079-3.167-8.347-7.128-12.414-11.865z" fill="#5c8fea"></path><path d="m315.694 136.978c-1.837-2.881-2.708-6.403-2.453-9.918.813-11.214.141-30.942-13.49-37.076-11.447-5.152-25.34-2.411-34.979.794-5.709 1.9-11.997 1.899-17.706 0-.576-.192-1.17-.381-1.775-.568-5.806 3.744-13.036 13.084-11.327 36.352.257 3.494-.628 7.028-2.491 9.95-3.984 6.247-6.243 15.211-4.949 24.637l3.236 23.535c0 38.974 23.582 61.494 33.72 69.367 2.871 2.23 5.959 4.051 9.173 5.516 4.023-1.569 7.875-3.723 11.421-6.477 10.016-7.777 33.31-30.024 33.305-68.456l3.201-23.312c1.278-9.282-.931-18.138-4.886-24.344z" fill="#9bb4f9"></path><g><path d="m263.608 253.091c-10.015-7.777-33.311-30.024-33.311-68.525l-3.197-23.25c-1.278-9.311.952-18.167 4.889-24.338 1.84-2.887 2.714-6.378 2.46-9.829-1.788-24.334 6.324-33.251 12.184-36.509-9.62-3.144-23.267-5.732-34.545-.656-5.861 2.637-15.407 10.972-13.483 37.165.254 3.452-.62 6.942-2.46 9.829-3.936 6.171-6.167 15.027-4.889 24.338l3.197 23.25c0 38.501 23.295 60.748 33.311 68.525 13.268 10.303 31.004 12.371 46.086 5.992-3.606-1.522-7.054-3.517-10.242-5.992z" fill="#7da2f4"></path></g><path d="m344.096 281.843c-42.668 87.587-198.307 201.871-198.307 201.871-3.253-3.254-4.444-7.275-4.662-11.031-.364-6.279 2.743-12.264 7.907-15.854 101.634-70.646 159.122-153.594 172.782-174.686 2.095-3.234 5.479-5.402 9.292-5.95 4.51-.648 9.039 1.053 12.007 4.51z" fill="#f3f7ff"></path><path d="m186.289 445.393c-10.044-2.94-6.522-11.283-6.522-11.284-9.754 7.652-19.994 15.255-30.733 22.72-5.164 3.59-8.271 9.575-7.907 15.854.217 3.756 1.408 7.777 4.662 11.031 0 0 17.181-12.616 41.687-32.674-1.214-3.122-1.187-5.647-1.187-5.647z" fill="#d1d8e0"></path><path d="m294.263 38.668h-44.52c-4.148 1.785-7.077 5.901-7.077 10.683s2.93 8.898 7.077 10.683h44.52c5.876 0 10.684-4.808 10.684-10.683s-4.808-10.683-10.684-10.683z" fill="#f9a0b1"></path><path d="m243.059 49.352c0-5.072 3.449-9.368 8.115-10.683h-33.599c-5.876 0-10.684 4.807-10.684 10.683s4.808 10.683 10.684 10.683h33.599c-4.666-1.316-8.115-5.611-8.115-10.683z" fill="#ff7186"></path><path d="m379.141 415.805c9.09-2.118 30.823-8.165 49.242-20.94 1.924-1.335 4.577-.743 5.713 1.305 2.852 5.143 7.031 15.26 5.171 28.106-.427 2.949-2.165 5.541-4.669 7.156-8.365 5.393-29.776 17.318-55.366 17.155-2.237-.014-4.149-1.617-4.579-3.812-.931-4.753-2.112-13.56-.721-23.321.396-2.777 2.478-5.012 5.209-5.649z" fill="#ffc839"></path><path d="m132.859 415.805c-9.09-2.118-30.823-8.165-49.242-20.94-1.924-1.335-4.577-.743-5.713 1.305-2.852 5.143-7.031 15.26-5.171 28.106.427 2.949 2.165 5.541 4.669 7.156 8.365 5.393 29.776 17.318 55.366 17.155 2.237-.014 4.149-1.617 4.579-3.812.931-4.753 2.112-13.56.721-23.321-.396-2.777-2.478-5.012-5.209-5.649z" fill="#ffc839"></path><path d="m370.763 293.481c-5.195-.425-7.959-2.441-14.082-5.893-3.099-1.747-6.209-3.401-9.34-4.962-3.217-1.603-7.12-.692-9.33 2.142 0 0-62.736 101.67-184.177 184.104-5.514 3.743-8.892 9.769-9.431 16.294 33.469 17.154 71.403 26.834 111.597 26.834 11.539 0 22.885-.816 33.999-2.36 58.253-60.188 69.57-133.035 117.426-183.891 4.721-5.016 4.461-12.912-.644-17.536-8.712-7.891-20.39-13.455-36.018-14.732z" fill="#ffc839"></path><path d="m240.226 494.641-7.225-13.585c-8.874-2.07-6.711-9.598-6.711-9.598l-17.628-8.714c-22.589 0-22.372-17.351-22.372-17.351-10.306 7.928-21.124 15.787-32.456 23.479-5.514 3.743-8.892 9.769-9.431 16.294 31.754 16.275 67.529 25.806 105.437 26.742-9.979-5.202-9.614-17.267-9.614-17.267z" fill="#ffb332"></path><path d="m329.15 362.621h-8.915c-4.812 0-8.714-3.901-8.714-8.714 0-4.812 3.901-8.714 8.714-8.714h8.915c4.812 0 8.714 3.901 8.714 8.714 0 4.813-3.902 8.714-8.714 8.714z" fill="#ffb332"></path><path d="m297 462.744h-8.915c-4.812 0-8.714-3.901-8.714-8.714 0-4.812 3.901-8.714 8.714-8.714h8.915c4.812 0 8.714 3.901 8.714 8.714 0 4.812-3.902 8.714-8.714 8.714z" fill="#ffb332"></path><path d="m260.377 438.798h-8.915c-4.812 0-8.714-3.901-8.714-8.714 0-4.812 3.901-8.714 8.714-8.714h8.915c4.812 0 8.713 3.901 8.713 8.714 0 4.813-3.901 8.714-8.713 8.714z" fill="#ffdd40"></path><path d="m320.235 414.159h-8.915c-4.812 0-8.714-3.901-8.714-8.714 0-4.812 3.901-8.714 8.714-8.714h8.915c4.812 0 8.713 3.901 8.713 8.714.001 4.813-3.9 8.714-8.713 8.714z" fill="#ffdd40"></path><path d="m295.184 477.38h-8.915c-4.812 0-8.714-3.901-8.714-8.714 0-4.812 3.901-8.713 8.714-8.713h8.915c4.812 0 8.714 3.901 8.714 8.713 0 4.813-3.901 8.714-8.714 8.714z" fill="#ffdd40"></path><path d="m372.919 328.786h-8.915c-4.812 0-8.714-3.901-8.714-8.714 0-4.812 3.901-8.713 8.714-8.713h8.915c4.812 0 8.713 3.901 8.713 8.713.001 4.812-3.901 8.714-8.713 8.714z" fill="#ffdd40"></path><path d="m233.001 498.483h-8.915c-4.812 0-8.714-3.901-8.714-8.713 0-4.812 3.901-8.714 8.714-8.714h8.915c4.812 0 8.714 3.901 8.714 8.714-.001 4.811-3.902 8.713-8.714 8.713z" fill="#ffdd40"></path><g fill="#47484c"><path d="m346.577 351.805h-8.915c-4.812 0-8.714-3.901-8.714-8.714 0-4.812 3.901-8.714 8.714-8.714h8.915c4.812 0 8.714 3.901 8.714 8.714 0 4.813-3.902 8.714-8.714 8.714z"></path><path d="m333.406 398.377h-8.915c-4.812 0-8.714-3.901-8.714-8.714 0-4.812 3.901-8.714 8.714-8.714h8.915c4.812 0 8.714 3.901 8.714 8.714 0 4.813-3.901 8.714-8.714 8.714z"></path><path d="m288.486 424.885h-8.915c-4.812 0-8.714-3.901-8.714-8.714 0-4.812 3.901-8.714 8.714-8.714h8.915c4.812 0 8.714 3.901 8.714 8.714 0 4.813-3.901 8.714-8.714 8.714z"></path><path d="m275.316 471.457h-8.915c-4.812 0-8.714-3.901-8.714-8.714 0-4.812 3.901-8.714 8.714-8.714h8.915c4.812 0 8.713 3.901 8.713 8.714 0 4.813-3.901 8.714-8.713 8.714z"></path><path d="m226.29 471.457h-8.915c-4.812 0-8.714-3.901-8.714-8.714 0-4.812 3.901-8.714 8.714-8.714h8.915c4.812 0 8.714 3.901 8.714 8.714-.001 4.813-3.902 8.714-8.714 8.714z"></path><path d="m213.119 507.196h-8.915c-4.812 0-8.714-3.901-8.714-8.714 0-4.812 3.901-8.714 8.714-8.714h8.915c4.812 0 8.714 3.901 8.714 8.714-.001 4.813-3.902 8.714-8.714 8.714z"></path></g><g fill="#f3f7ff"><path d="m278.844 101.374h-45.849c-2.438 0-4.432 1.994-4.432 4.432s1.994 4.432 4.432 4.432h45.849c2.438 0 4.432-1.994 4.432-4.432s-1.994-4.432-4.432-4.432z"></path><path d="m278.844 117.382h-45.849c-2.438 0-4.432 1.994-4.432 4.432s1.994 4.432 4.432 4.432h45.849c2.438 0 4.432-1.994 4.432-4.432s-1.994-4.432-4.432-4.432z"></path></g><ellipse cx="255.919" cy="123.605" fill="#ffc839" rx="7.44" ry="8.188"></ellipse><path d="m337.594 263.383c-4.933-5.074-13.046-5.191-18.12-.256-21.005 20.417-46.689 29.371-71.8 26.866-4.248 2.308-14.951 9.689-10.054 23.517 0 0-1.282.052-3.141.443 6.992 1.42 14.096 2.161 21.237 2.176h.235c29.514 0 58.41-12.291 81.386-34.626 5.075-4.933 5.19-13.045.257-18.12z" fill="#42ba9b"></path><path d="m192.365 263.126c-5.074-4.931-13.187-4.817-18.12.257-4.933 5.075-4.818 13.188.257 18.121 17.659 17.165 38.849 28.398 61.134 32.676 1.849-.39 3.12-.473 3.12-.473-5.995-17.668 10.548-23.567 10.548-23.567.004-.007.008-.015.012-.022-20.188-1.611-40.08-10.591-56.951-26.992z" fill="#34a086"></path><path d="m359.257 276.33c-5.06-4.948-13.173-4.857-18.121.204-24.698 25.259-54.149 38.611-85.169 38.611-6.146 0-12.276-.561-18.348-1.644.001.003.002.005.003.008 0 0-21.364.824-16.479 22.53 11.391 3.125 23.069 4.734 34.825 4.734 37.531 0 74.286-16.451 103.494-46.323 4.946-5.06 4.855-13.173-.205-18.12z" fill="#52ceaa"></path><path d="m238.755 313.707c-24.606-4.115-48.285-16.957-68.052-37.174-4.949-5.059-13.062-5.153-18.121-.203-5.06 4.947-5.152 13.061-.204 18.121 20.451 20.916 44.62 35.241 70.177 41.957-7.099-21.237 16.19-22.7 16.2-22.701z" fill="#42ba9b"></path><path d="m198.273 231.016c-.092-.175-.186-.349-.28-.521-3.297-6.028-10.057-9.387-16.826-8.213-.04.007-.08.014-.12.021.522 1.142.822 2.564.822 4.163 0 1.232.392 2.411 1.134 3.427 1.641 2.248 2.582 4.816 2.582 7.047 0 5.689-5.055 11.573-13.516 11.573-2.446 0-4.578-.375-6.337-1.114-.862-.362-1.768-.544-2.674-.544-.906 0-1.812.181-2.674.544-1.76.74-3.892 1.114-6.337 1.114-8.46 0-13.516-5.884-13.516-11.573 0-2.231.941-4.799 2.582-7.047.742-1.016 1.135-2.195 1.135-3.427 0-1.599.301-3.021.822-4.163-.04-.007-.08-.014-.12-.021-6.77-1.174-13.53 2.185-16.827 8.213-.094.172-.188.346-.28.521-5.882 11.143-3.208 24.85 5.998 33.453 2.65 2.477 4.905 4.864 6.805 7.074 5.71 6.644 8.838 15.114 8.838 23.874v24.176c0 7.496 6.077 13.573 13.573 13.573 7.496 0 13.573-6.077 13.573-13.573v-24.176c0-8.76 3.129-17.231 8.838-23.874 1.899-2.21 4.154-4.597 6.805-7.074 9.208-8.603 11.882-22.31 6-33.453z" fill="#6ae5bf"></path><path d="m140.648 271.543c5.71 6.644 8.838 15.114 8.838 23.874v24.176c0 7.496 6.077 13.573 13.573 13.573s13.573-6.077 13.573-13.573v-24.176c0-3.935.636-7.81 1.849-11.489-.001 0-.002 0-.003.001-12.146 5.554-15.419-4.764-15.419-4.764l-3.587-31.445c-1.572.518-3.381.795-5.425.795-8.46 0-13.516-5.884-13.516-11.573 0-2.231.941-4.799 2.582-7.047.742-1.016 1.135-2.195 1.135-3.427 0-1.599.301-3.021.822-4.163-.04-.007-.08-.014-.12-.021-6.77-1.174-13.53 2.185-16.827 8.213-.094.172-.188.346-.28.521-5.882 11.143-3.208 24.85 5.998 33.453 2.652 2.475 4.907 4.862 6.807 7.072z" fill="#52ceaa"></path><path d="m166.778 273.068h-3.719-3.719c-1.064 0-2.038-.422-2.76-1.115-.001.052-.007.102-.007.155 0 3.897 2.904 7.056 6.486 7.056s6.486-3.159 6.486-7.056c0-.052-.006-.103-.007-.155-.721.693-1.695 1.115-2.76 1.115z" fill="#42ba9b"></path><path d="m163.061 255.093c-5.007 0-9.301 3.016-11.19 7.326 2.186 2.352 3.129 5.554 3.523 7.957.318 1.939 1.981 3.367 3.946 3.367h3.719 3.719c1.965 0 3.628-1.428 3.946-3.367.394-2.405 1.337-5.608 3.526-7.961-1.89-4.307-6.183-7.322-11.189-7.322z" fill="#ff4155"></path><path d="m177.542 255.4c0-2.712-.555-5.275-1.531-7.571-1.304.335-2.637.517-3.94.517-2.972 0-5.097-.55-6.534-1.154-1.587-.667-3.369-.667-4.956 0-1.437.604-3.561 1.154-6.534 1.154-1.335 0-2.703-.191-4.038-.544-.97 2.356-1.519 4.973-1.519 7.737 0 1.234.118 2.435.325 3.601.984 1.135 1.967 2.159 2.811 3.003.207.207.4.425.587.646 1.719-4.307 5.926-7.351 10.846-7.351s9.127 3.044 10.846 7.351c.187-.221.38-.439.587-.646.799-.799 1.724-1.762 2.655-2.826.257-1.26.395-2.57.395-3.917z" fill="#e80054"></path><path d="m148.737 255.136c0-2.612.563-5.075 1.554-7.254-1.919-.47-3.778-1.29-5.375-2.437-3.562 3.941.62 10.043 4.422 14.288-.389-1.457-.601-2.999-.601-4.597z" fill="#42ba9b"></path><path d="m177.381 255.136c0 1.598-.212 3.141-.602 4.597 3.802-4.245 7.984-10.347 4.423-14.288-1.597 1.147-3.456 1.967-5.375 2.437.992 2.178 1.554 4.642 1.554 7.254z" fill="#52ceaa"></path><path d="m170.469 248.289c.504.036 1.037.056 1.601.056 1.25 0 2.529-.159 3.783-.467.059 2.716-.298 7.113-2.671 11.016-.496.816-1.748.438-1.691-.516.158-2.648.108-6.555-1.022-10.089z" fill="#ddf5ff"></path><path d="m155.649 248.289c-.504.036-1.037.056-1.601.056-1.25 0-2.529-.159-3.783-.467-.059 2.716.298 7.113 2.671 11.016.496.816 1.748.438 1.691-.516-.157-2.648-.108-6.555 1.022-10.089z" fill="#ddf5ff"></path><path d="m183.413 229.595c-.662-.906-1.037-1.989-1.037-3.111v-.018c0-4.526-2.269-7.518-5.068-7.518-1.39 0-2.649.229-3.564 1.694-.849 1.36-2.292 2.266-3.893 2.359-.931.054-1.888.193-2.867.429-2.585.622-5.265.622-7.85 0-.979-.236-1.936-.375-2.867-.429-1.601-.093-3.044-.999-3.893-2.359-.915-1.465-2.174-1.694-3.564-1.694-2.799 0-5.068 2.993-5.068 7.518v.018c0 1.122-.375 2.205-1.037 3.111-1.712 2.344-2.68 4.985-2.68 7.346 0 7.687 7.434 12.08 14.023 12.08 2.972 0 5.097-.55 6.534-1.154 1.587-.667 3.369-.667 4.956 0 1.437.604 3.561 1.154 6.534 1.154 6.589 0 14.023-4.393 14.023-12.08-.002-2.361-.97-5.002-2.682-7.346z" fill="#52ceaa"></path><path d="m156.267 223.002c-1.601-.093-3.044-.999-3.893-2.359-.915-1.465-2.174-1.694-3.564-1.694-2.799 0-5.068 2.993-5.068 7.518v.018c0 1.122-.375 2.205-1.037 3.111-1.712 2.344-2.68 4.985-2.68 7.346 0 7.687 7.434 12.08 14.023 12.08.729 0 1.406-.034 2.035-.093 1.443-.648 2.643-1.098 3.39-1.209 3.823-.57 5.861-15.136 1.37-17.45s-1.708-6.839-1.708-6.839c-.98-.236-1.937-.375-2.868-.429z" fill="#42ba9b"></path><path d="m183.413 229.595c-.662-.906-1.037-1.989-1.037-3.111v-.018c0-1.451-.235-2.741-.644-3.829l-.049-.035s-5.844 4.631-5.844 9.299c0 2.784 4.45.592 8.041-1.63-.15-.227-.304-.453-.467-.676z" fill="#6ae5bf"></path><path d="m142.705 229.595c.662-.906 1.037-1.989 1.037-3.111v-.018c0-1.451.236-2.741.645-3.829l.049-.035s5.844 4.631 5.844 9.299c0 2.784-4.45.592-8.04-1.63.149-.227.302-.453.465-.676z" fill="#6ae5bf"></path><path d="m168.017 234.333c-.194-2.575-2.324-4.572-4.906-4.572h-.098c-2.583 0-4.714 1.999-4.907 4.575-.388 5.183-1.968 13.05-8.187 14.126 1.364.367 2.764.559 4.129.559 2.972 0 5.097-.55 6.534-1.154 1.587-.667 3.369-.667 4.956 0 1.437.604 3.561 1.154 6.534 1.154 1.365 0 2.765-.191 4.129-.559-6.215-1.074-7.794-8.946-8.184-14.129z" fill="#6ae5bf"></path><path d="m144.722 230.353c0 .547.124 1.064.341 1.529 2.746 1.405 5.217 2.095 5.217.02 0-1.823-.893-3.64-1.98-5.178-1.981.029-3.578 1.641-3.578 3.629z" fill="#2c354c"></path><path d="m181.397 230.353c0-1.988-1.598-3.6-3.579-3.629-1.087 1.538-1.98 3.355-1.98 5.178 0 2.075 2.472 1.385 5.217-.02.217-.465.342-.982.342-1.529z" fill="#2c354c"></path><path d="m10.998 266.998c0 26.821 4.326 52.628 12.294 76.779 41.689-9.569 66.708-54.115 66.708-89.534 0-46.758 9.037-43.362 34.725-106.193 15.726-38.467 7.959-68.015-2.004-86.648-67.243 43.679-111.723 119.438-111.723 205.596z" fill="#c67c4a"></path><path d="m501.002 266.998c0 26.821-4.326 52.628-12.294 76.779-41.689-9.569-66.708-54.115-66.708-89.534 0-46.758-9.038-43.362-34.725-106.193-15.726-38.467-7.96-68.015 2.004-86.648 67.243 43.679 111.723 119.438 111.723 205.596z" fill="#c67c4a"></path><path d="m77.9 396.176c-2.853 5.147-7.03 15.268-5.166 28.116.427 2.945 2.172 5.532 4.674 7.144 5.134 3.31 15.18 9.071 28.08 12.995-13.262-19.319 4.333-35.845 4.333-35.845v-.001c-8.383-3.31-17.645-7.784-26.198-13.715-1.927-1.337-4.585-.746-5.723 1.306z" fill="#ffb332"></path><path d="m405.194 407.362h-.001c-10.902 4.569-20.683 7.193-26.052 8.444-2.731.636-4.813 2.872-5.209 5.648-1.391 9.761-.21 18.568.721 23.321.43 2.195 2.342 3.798 4.579 3.812 12.616.08 24.211-2.779 33.733-6.343-19.864-11.923-7.771-34.882-7.771-34.882z" fill="#ffb332"></path></g></svg>